<svg xmlns="http://www.w3.org/2000/svg" width="149" height="160" viewBox="0 0 149 160">
  <defs>
    <style>
      .cls-1 {
        fill: #677ff6;
        fill-rule: evenodd;
      }
    </style>
  </defs>
  <path id="Preenchimento_de_Cor_1" data-name="Preenchimento de Cor 1" class="cls-1" d="M215.786,3h7.758a0.515,0.515,0,0,0,.108.322c0.513,0.307,1.531-.162,2.154.107l0.324,0.43h1.831a2.769,2.769,0,0,0,.216.429h1.4l0.108,0.322h1.4l0.323,0.429h0.539a3.623,3.623,0,0,1,.215.429h1.4l0.323,0.43h0.539l0.323,0.429h0.539c0.036,0.107.071,0.215,0.107,0.322h0.647q0.108,0.215.215,0.429a6.842,6.842,0,0,0,1.078.107,0.878,0.878,0,0,0,.215.644c0.22,0.132.672-.031,0.97,0.107l0.108,0.322h0.538a3.805,3.805,0,0,1,.324.429h0.538c0.29,0.148.479,0.713,0.755,0.859h0.538l0.323,0.429h0.539L242.4,10.3h0.538c0.263,0.139.4,0.719,0.647,0.859h0.646a3.27,3.27,0,0,0,.216.43c0.388,0.2.905,0.124,1.293,0.322l0.754,0.859h0.539a5.888,5.888,0,0,1,.538.752c0.192,0.157.521-.036,0.755,0.107,0.035,0.107.071,0.215,0.107,0.322h0.539a4.356,4.356,0,0,1,.323.43c0.3,0.144.748-.035,0.97,0.107a2.811,2.811,0,0,0,.323.644,13.085,13.085,0,0,0,1.293.429,3.291,3.291,0,0,1,.215.43h0.647c0.241,0.137.406,0.719,0.646,0.859h0.539l0.323,0.43c0.387,0.193.918,0.122,1.293,0.322,0.263,0.141.41,0.7,0.647,0.859h0.646c0.194,0.11.348,0.634,0.539,0.752h0.97l0.754,0.859h0.538l0.755,0.859h0.969c0.193,0.12.344,0.638,0.539,0.752h0.539l0.323,0.43H263.3l0.646,0.752h0.539a3.3,3.3,0,0,1,.215.43h0.647c0.24,0.136.406,0.723,0.646,0.859h0.647a3.242,3.242,0,0,0,.215.43c0.377,0.195.922,0.124,1.293,0.322,0.263,0.14.409,0.7,0.647,0.859h0.646q0.108,0.215.215,0.429H270.3c0.192,0.129.327,0.633,0.539,0.752h0.538l0.324,0.429h0.538l0.324,0.43h0.538c0.211,0.118.348,0.624,0.539,0.752h0.646l0.216,0.43h0.646c0.238,0.16.384,0.718,0.647,0.859h0.539l0.646,0.752h0.539c0.276,0.148.464,0.708,0.754,0.859h0.539c0.367,0.213.6,0.975,0.969,1.181h0.647a3.717,3.717,0,0,1,.431.644c0.231,0.267.607,0.4,0.862,0.644,0.58,0.562,1.063,1.236,1.616,1.825,0.207,0.221.523,0.335,0.754,0.537,0.256,0.224.4,0.622,0.646,0.859h0.216c0.234,0.29-.17.329,0,0.644,0.314,0.582,1.426.911,1.724,1.5,0.162,0.323-.236.353,0,0.644a7.006,7.006,0,0,1,.754.537v0.537l0.431,0.322V41.87a7.181,7.181,0,0,0,.754.537c0.234,0.291-.17.329,0,0.644,0.128,0.238.729,0.408,0.862,0.644v0.644l0.431,0.215V45.2a2.772,2.772,0,0,1,.431.215l-0.108.429a2.56,2.56,0,0,0,.431.215V46.7l0.431,0.215V47.99a2.93,2.93,0,0,1,.431.215v0.966l0.323,0.107a7.343,7.343,0,0,1,.108.752,2.062,2.062,0,0,1,.431.322,3.813,3.813,0,0,0-.108,1.181,3.043,3.043,0,0,0,.431.215v1.5l0.431,0.215v0.966l0.431,0.215v2.684l0.431,0.215v51.11c-0.949.835,0.058,1.8-.431,2.9l-0.431.322v0.966l-0.431.215v1.4l-0.431.322a2.182,2.182,0,0,0,.108.751c-0.061.211-.474,0.309-0.539,0.537a2.144,2.144,0,0,1,.108.752l-0.431.322v0.966l-0.431.215v0.644l-0.431.215v0.644a3.035,3.035,0,0,0-.431.215l0.108,0.43a2.54,2.54,0,0,1-.431.214v0.645l-0.431.214v0.645l-0.431.214v0.645c-0.128.19-.636,0.326-0.754,0.537v0.536l-0.431.323v0.536a3.3,3.3,0,0,1-.754.537,4.679,4.679,0,0,0-.539.645,0.5,0.5,0,0,1,.108.429c-0.13.262-.724,0.4-0.862,0.644v0.645a3.726,3.726,0,0,1-.647.429c-0.681.589-1.2,1.4-1.831,2.04a1.64,1.64,0,0,0-.431.215c-0.1.2,0.257,0.43,0,.644h-0.647c-0.071.143-.143,0.287-0.215,0.43-0.639.534-1.2,1.076-1.832,1.61l-0.215.43h-0.647c-0.253.169-.7,1.027-0.969,1.181h-0.539c-0.43.222-.657,0.964-1.078,1.181H276.23q-0.378.429-.754,0.859h-0.539l-0.108.322a6.753,6.753,0,0,1-.754.108l-0.108.322c-0.233.143-.562-0.049-0.754,0.107a8.549,8.549,0,0,1-.539.752h-0.538l-0.324.429h-0.538l-0.324.43h-0.538c-0.211.117-.348,0.624-0.539,0.751h-0.646l-0.216.43h-0.646a3.448,3.448,0,0,1-.216.429H267.61l-0.646.752h-0.539a3.3,3.3,0,0,0-.215.429h-0.647c-0.072.144-.143,0.287-0.215,0.43H264.7c-0.191.128-.327,0.633-0.538,0.751h-0.539q-0.377.431-.754,0.859h-0.539l-0.323.43h-0.539l-0.108.322h-0.646l-0.216.43h-0.538c-0.29.149-.479,0.712-0.755,0.859h-0.538l-0.323.429h-0.539c-0.211.118-.348,0.625-0.539,0.752h-0.646l-0.216.429h-0.646a3.391,3.391,0,0,1-.216.43h-0.538l-0.647.751h-0.539l-0.323.43h-0.539q-0.106.214-.215,0.429H252.1c-0.191.128-.327,0.634-0.538,0.752h-0.539l-0.754.859h-0.539l-0.323.429h-0.539l-0.108.323h-0.646q-0.108.215-.215,0.429h-0.647a3.448,3.448,0,0,1-.215.43h-0.539q-0.377.429-.754,0.859c-0.372.19-.936,0.123-1.293,0.322l-0.216.429h-0.646c-0.249.14-.385,0.72-0.647,0.859-0.373.2-.913,0.128-1.293,0.322q-0.377.43-.754,0.859h-0.538l-0.324.43H239.49l-0.216.429h-0.646l-0.108.322h-0.539q-0.377.431-.754,0.859h-0.539q-0.161.216-.323,0.43h-0.539c-0.036.107-.071,0.215-0.107,0.322h-0.97q-0.162.215-.323,0.43h-0.539l-0.323.429h-0.97q-0.108.214-.215,0.43h-0.647a2.773,2.773,0,0,1-.215.429h-1.4l-0.108.322h-1.4l-0.324.43h-1.723l-0.324.429h-1.724c-2,.873-6.588.428-9.373,0.43-0.6-1.019-1.543.035-2.478-.43l-0.216-.429h-1.831l-0.216-.43H209.43l-0.216-.322h-1.293a3.276,3.276,0,0,1-.323-0.429h-0.97l-0.323-.43h-0.97q-0.107-.214-0.215-0.429h-0.647a3.253,3.253,0,0,0-.215-0.43c-0.385-.2-0.907-0.125-1.293-0.322a3.529,3.529,0,0,1-.216-0.43h-1.077c-0.247-.13-0.388-0.721-0.646-0.859-0.373-.2-0.914-0.127-1.293-0.322l-0.755-.859H198.44a3.448,3.448,0,0,1-.216-0.429h-0.646l-0.216-.43h-0.646c-0.191-.128-0.328-0.633-0.539-0.751h-0.539l-0.323-.43h-0.538l-0.324-.429h-0.538c-0.211-.118-0.348-0.625-0.539-0.752h-0.647q-0.107-.214-0.215-0.429h-0.539q-0.376-.43-0.754-0.859c-0.385-.2-0.908-0.125-1.293-0.323a3.243,3.243,0,0,1-.215-0.429h-0.647c-0.239-.135-0.406-0.724-0.646-0.859h-0.647c-0.036-.107-0.072-0.215-0.107-0.322h-0.539q-0.162-.215-0.323-0.43h-0.539c-0.276-.147-0.464-0.709-0.754-0.859h-0.539q-0.108-.214-0.215-0.429H184.11L184,148.278h-0.538l-0.755-.859h-0.538l-0.324-.43h-0.538l-0.108-.322h-0.646c-0.24-.135-0.407-0.724-0.647-0.859h-0.646a3.253,3.253,0,0,0-.216-0.429h-0.539l-0.646-.752h-0.539a3.315,3.315,0,0,1-.215-0.43H176.46q-0.107-.214-0.215-0.429H175.6c-0.191-.128-0.327-0.634-0.538-0.752h-0.539l-0.323-.429h-0.539l-0.323-.43H172.8a8.743,8.743,0,0,1-.539-0.751c-0.192-.156-0.521.036-0.754-0.108l-0.108-.322h-0.538l-0.323-.429H170l-0.323-.43h-0.539l-0.647-.751h-0.538c-0.262-.141-0.4-0.72-0.647-0.859h-0.646l-0.216-.43H165.9l-0.324-.429c-0.39-.194-0.914-0.122-1.293-0.322-0.262-.14-0.409-0.7-0.646-0.859h-0.646l-0.216-.43h-0.646a14.842,14.842,0,0,0-.97-1.181h-0.539l-1.508-1.611h-0.539c-0.706-.376-1.26-1.477-1.831-2.04a22.905,22.905,0,0,1-2.8-2.577v-0.537l-1.616-1.5v-0.537a6.723,6.723,0,0,0-.754-0.537,1.221,1.221,0,0,1,0-.644l-0.431-.215v-0.644c-0.134-.239-0.727-0.406-0.862-0.644v-0.644c-0.167-.245-0.686-0.377-0.862-0.645,0.129-.708-0.063-0.241-0.323-0.644V120.79l-0.431-.215v-0.644l-0.431-.215V118.75l-0.431-.322,0.108-.43a2.791,2.791,0,0,0-.431-0.215V116.71l-0.431-.215v-0.644a2.837,2.837,0,0,1-.431-0.215v-0.967l-0.431-.214a5.562,5.562,0,0,1,.108-1.611c-0.063-.228-0.479-0.327-0.539-0.537a4.058,4.058,0,0,0,.108-1.181l-0.431-.322v-2.148q-0.216-.16-0.431-0.322V57.546l0.431-.322V55.077a3.31,3.31,0,0,0,.431-0.322,4.729,4.729,0,0,0-.108-1.181,7.1,7.1,0,0,1,.539-0.537,2.376,2.376,0,0,1-.108-1.181l0.431-.215v-1.4a2.763,2.763,0,0,1,.431-0.215V49.386l0.431-.215V48.1a2.628,2.628,0,0,0,.431-0.215l-0.108-.859a2.5,2.5,0,0,1,.431-0.215V46.165l0.431-.215V45.306l0.431-.215V44.447a3.044,3.044,0,0,0,.431-0.215,0.735,0.735,0,0,0-.108-0.429,3.525,3.525,0,0,1,.431-0.215V42.943c0.168-.321,1.116-0.762,1.293-1.074V41.225a2.826,2.826,0,0,0,.431-0.215,1.232,1.232,0,0,1,0-.644,8.7,8.7,0,0,0,1.185-.966V38.863l1.185-1.074V37.252c0.156-.225.709-0.062,0.862-0.322V36.393c0.049-.086,3.277-3.3,3.34-3.329h0.539c0.376-.223-0.053-0.635.323-0.859h0.539l0.646-.752h0.539a8.511,8.511,0,0,0,.97-1.181,4.586,4.586,0,0,1,.754-0.107l0.108-.322h0.646c0.249-.14.384-0.719,0.646-0.859h0.539l0.647-.752h0.538l0.755-.859H167.3c0.245-.13.387-0.733,0.647-0.859h0.969l0.647-.752H170.1c0.275-.147.463-0.71,0.754-0.859H171.4l0.108-.322h0.539a3.887,3.887,0,0,0,.323-0.43h0.539l0.754-.859H174.2l0.646-.752h0.539c0.258-.138.4-0.729,0.646-0.859h1.078c0.184-.117.332-0.647,0.539-0.752h0.969a9.686,9.686,0,0,0,.647-0.859h0.646a8.311,8.311,0,0,0,.539-0.752c0.192-.156.521,0.036,0.754-0.107l0.108-.322h0.538l0.324-.43h0.538l0.755-.859c0.377-.195.928-0.124,1.293-0.322q0.106-.215.215-0.43h0.539c0.29-.15.478-0.712,0.754-0.859H186.8l0.323-.43h0.539c0.035-.107.071-0.215,0.107-0.322h0.647c0.24-.135.407-0.724,0.646-0.859h0.647a3.266,3.266,0,0,1,.215-0.43c0.385-.2.908-0.125,1.293-0.322l0.754-.859h0.539c0.2-.118.349-0.6,0.539-0.752l1.077-.107,0.647-.752h0.538l0.323-.429h0.539a3.868,3.868,0,0,1,.323-0.43h0.539c0.211-.117.335-0.637,0.539-0.752h0.646c0.249-.14.385-0.719,0.647-0.859h0.538l0.324-.429c0.4-.2.9-0.122,1.293-0.322a3.286,3.286,0,0,0,.215-0.429h0.647q0.107-.215.215-0.43h0.646a3.411,3.411,0,0,1,.216-0.429H203.5l0.215-.322h0.97q0.108-.215.215-0.429h0.647a2.775,2.775,0,0,1,.215-0.43h0.97l0.323-.429H207.6a2.839,2.839,0,0,1,.323-0.429h1.293l0.216-.322h1.4l0.216-.429H213.2l0.324-.43c0.6-.264,1.733.069,2.262-0.107V3Zm0.97,11.382c-0.3.578-1.166,0.468-2.047,0.429-0.621.985-1.534-.025-2.478,0.43a3.5,3.5,0,0,1-.323.429c-0.507.2-1.6,0.114-2.048,0.322a2.875,2.875,0,0,0-.215.43H209l-0.216.429h-0.646a3.276,3.276,0,0,1-.216.43c-0.384.2-.908,0.125-1.293,0.322a3.286,3.286,0,0,0-.215.43h-0.647l-0.215.429H204.9c-0.237.159-.383,0.72-0.646,0.859-0.374.2-.913,0.127-1.293,0.322l-0.754.859h-0.539a3.906,3.906,0,0,1-.323.43H200.81l-0.108.322a6.634,6.634,0,0,0-.754.107l-0.108.322H199.3l-0.754.859h-0.539a7.466,7.466,0,0,0-.539.752h-0.646l-0.216.429h-0.646l-0.216.43h-0.538l-0.647.752h-0.539l-0.323.43H193.16a3.291,3.291,0,0,0-.215.43H192.3c-0.2.111-.347,0.626-0.538,0.752h-0.539a3.954,3.954,0,0,0-.323.43h-0.539l-0.323.429H189.5l-0.754.859c-0.378.2-.928,0.124-1.293,0.322q-0.108.215-.215,0.43H186.7l-0.754.859c-0.386.2-.908,0.124-1.293,0.322a3.289,3.289,0,0,0-.216.429h-0.646c-0.24.135-.407,0.724-0.647,0.859h-0.646a3.283,3.283,0,0,1-.216.43c-0.379.195-.919,0.124-1.292,0.322-0.263.139-.41,0.7-0.647,0.859h-0.646l-0.216.43c-0.365.2-.915,0.127-1.293,0.322l-0.754.859h-0.539l-0.323.429h-0.539a3.846,3.846,0,0,1-.323.429h-0.539c-0.19.126-.341,0.641-0.538,0.752h-0.647a9.362,9.362,0,0,1-.646.859h-0.97c-0.21.107-.352,0.627-0.539,0.752h-0.646c-0.24.135-.407,0.724-0.646,0.859h-0.647c-0.187.124-.329,0.645-0.539,0.752H168.38l-1.509,1.611h-0.538a24.7,24.7,0,0,0-2.694,2.9,9.137,9.137,0,0,0-1.508,1.288v0.537l-1.293,1.181V47.56c-0.063.116-.354,0.179-0.431,0.322a0.512,0.512,0,0,1,.108.429c-0.129.262-.725,0.4-0.862,0.644V49.6l-0.431.215v0.966l-0.431.322c0.036,0.143.071,0.286,0.107,0.429a2.5,2.5,0,0,1-.431.215v0.644l-0.431.215v0.644l-0.431.215v1.4l-0.431.215a4.406,4.406,0,0,0,.108,1.288l-0.538.43c-0.138.393,0.368,1.472,0.107,2.04a2.881,2.881,0,0,1-.431.215v48.534a3.278,3.278,0,0,1,.431.322c0.2,0.517-.246,1.258-0.107,1.611a4.954,4.954,0,0,1,.538.429c0.092,0.31-.326,1.14-0.108,1.611a2.924,2.924,0,0,0,.431.214v0.645l0.431,0.214V113.7a3.262,3.262,0,0,1,.431.215v0.644a2.884,2.884,0,0,1,.431.215c-0.036.143-.071,0.286-0.107,0.429a2.623,2.623,0,0,0,.431.215V116.5c0.125,0.238.728,0.409,0.862,0.644v0.644a7.587,7.587,0,0,1,.754.537v0.537l0.862,0.752v0.537c0.169,0.3,1,.7,1.185.966v0.644a4,4,0,0,0,.754.537,16.927,16.927,0,0,0,1.4,1.611,4.339,4.339,0,0,0,.754.107,1.121,1.121,0,0,0,.108.644c0.115,0.076.491,0,.646,0.108,0.267,0.179.677,1.023,0.97,1.181h0.538L168.7,126.7h0.539c0.275,0.148.463,0.709,0.754,0.859h0.539q0.107,0.216.215,0.43H171.4c0.192,0.128.328,0.633,0.539,0.752h0.539l0.323,0.429h0.539l0.323,0.43H174.2l0.108,0.322c0.2,0.152.5-.031,0.754,0.107,0.211,0.118.335,0.637,0.538,0.752h0.647q0.108,0.214.215,0.429H177l0.754,0.859c0.385,0.2.909,0.125,1.293,0.322a3.263,3.263,0,0,1,.216.43h0.646c0.24,0.135.407,0.724,0.647,0.859H181.2L181.309,134h0.538l0.324,0.429h0.538c0.263,0.141.41,0.7,0.647,0.859H184c0.2,0.116.327,0.634,0.539,0.752h0.539a3.683,3.683,0,0,1,.323.43h0.539l0.323,0.429H186.8l0.646,0.752,1.078,0.107c0.189,0.151.334,0.633,0.538,0.752h0.539c0.29,0.15.478,0.712,0.754,0.859,0.369,0.195.925,0.126,1.293,0.322,0.263,0.14.41,0.7,0.646,0.859h0.647q0.108,0.215.215,0.429h0.647l0.108,0.322h0.538l0.324,0.43h0.538q0.378,0.429.754,0.859h0.539a3.883,3.883,0,0,0,.323.429h0.539l0.108,0.322h0.539q0.376,0.431.754,0.859h0.538l0.324,0.43h0.538c0.211,0.118.348,0.624,0.539,0.752h0.647q0.106,0.215.215,0.429h0.647c0.236,0.159.383,0.719,0.646,0.859,0.373,0.2.914,0.127,1.293,0.322a3.315,3.315,0,0,1,.215.43h0.647q0.108,0.215.215,0.429h0.647a3.253,3.253,0,0,0,.215.43h0.539l0.646,0.751h0.97a2.883,2.883,0,0,1,.216.43h0.646l0.216,0.429H210.4l0.323,0.43h0.539l0.108,0.322h1.4l0.323,0.429h1.4l0.216,0.43h9.481q0.162-.215.323-0.43h1.4l0.216-.429h1.4l0.108-.322h0.97a3.446,3.446,0,0,0,.323-0.43h0.97l0.323-.429h0.538l0.216-.43h0.646a3.38,3.38,0,0,1,.216-0.429c0.383-.2.91-0.125,1.293-0.322q0.376-.43.754-0.859h0.539c0.036-.108.072-0.215,0.107-0.322a6.773,6.773,0,0,1,.755-0.108c0.036-.107.071-0.215,0.107-0.322,0.234-.144.562,0.049,0.755-0.107a8.542,8.542,0,0,1,.538-0.752h0.539l0.323-.429h0.539l0.323-.43h0.539c0.211-.118.347-0.624,0.539-0.752h0.646l0.216-.429H241a3.326,3.326,0,0,1,.216-0.43h0.538l0.647-.751h0.538a3.391,3.391,0,0,0,.216-0.43H243.8l0.216-.429h0.646c0.192-.129.328-0.633,0.539-0.752h0.539l0.323-.429H246.6q0.377-.431.754-0.859a11.092,11.092,0,0,0,1.4-.43,8.743,8.743,0,0,1,.539-0.751h0.539l0.323-.43H250.7l0.323-.429h0.539l0.108-.322h0.646q0.108-.216.215-0.43h0.647c0.237-.159.383-0.718,0.646-0.859h0.539q0.324-.375.647-0.752h0.538l0.323-.429H256.4a8.549,8.549,0,0,0,.539-0.752c0.192-.155.522,0.037,0.754-0.107l0.108-.322h0.539l0.323-.43h0.538l0.755-.859h0.969c0.212-.109.338-0.637,0.539-0.751h0.647a3.448,3.448,0,0,1,.215-0.43h0.539l0.754-.859h0.539a7.681,7.681,0,0,0,.538-0.751h0.647c0.072-.144.143-0.287,0.215-0.43h0.647c0.372-.2,1.08-1.016,1.4-1.181h0.539q0.162-.215.323-0.43h0.539a3.448,3.448,0,0,0,.216-0.429h0.646c0.2-.115.327-0.634,0.539-0.752a6.419,6.419,0,0,0,.754-0.107c1.467-1.2,2.759-2.534,4.094-3.866l1.616-1.5V120.36c0.169-.3,1-0.7,1.185-0.966V118.75c0.136-.239.727-0.405,0.862-0.645v-0.644a2.748,2.748,0,0,0,.431-0.215c-0.036-.143-0.072-0.286-0.107-0.429l0.431-.322v-0.537a3.448,3.448,0,0,1,.43-0.215V115.1l0.431-.215V114.24l0.431-.215v-0.644a2.251,2.251,0,0,0,.431-0.215q-0.054-.644-0.107-1.288l0.431-.215V110.7q0.214-.162.431-0.322v-1.4l0.431-.215V106.08a3.088,3.088,0,0,0,.431-0.215V68.176c0-2.3.449-6.92-.431-8.375V57.546a2.969,2.969,0,0,0-.431-0.215v-1.5a2.872,2.872,0,0,1-.431-0.215v-1.4L281.294,54a2.38,2.38,0,0,1,.107-0.859c-0.052-.151-0.45-0.355-0.538-0.537a1.224,1.224,0,0,0,.107-0.752l-0.431-.215V51l-0.431-.215V50.137a3.418,3.418,0,0,1-.43-0.215V49.386a2.939,2.939,0,0,1-.431-0.322c0.035-.143.071-0.286,0.107-0.43-0.117-.262-0.725-0.4-0.862-0.644V47.346c-0.133-.237-0.732-0.406-0.862-0.644-0.17-.313.235-0.355,0-0.644a17.145,17.145,0,0,1-1.616-1.4V44.124a24.374,24.374,0,0,0-2.155-2.148h-0.538c-0.226-.156-0.063-0.706-0.324-0.859h-0.538c-0.211-.119-0.347-0.624-0.539-0.752h-0.646c-0.24-.136-0.407-0.723-0.647-0.859h-0.646c-0.192-.128-0.328-0.633-0.539-0.752H268.9l-0.754-.859H267.61l-0.323-.43h-0.539c-0.035-.107-0.071-0.215-0.107-0.322h-0.647c-0.24-.135-0.406-0.724-0.646-0.859H264.7a3.26,3.26,0,0,0-.215-0.43c-0.378-.195-0.921-0.124-1.293-0.322-0.263-.14-0.41-0.7-0.646-0.859H261.9q-0.108-.215-0.215-0.43h-0.647a3.415,3.415,0,0,0-.215-0.429h-0.539l-0.647-.752H259.1l-0.323-.429h-0.539l-0.216-.429h-0.646c-0.193-.125-0.342-0.638-0.539-0.752H256.3l-0.323-.43h-0.538l-0.324-.43h-0.538c-0.211-.118-0.348-0.624-0.539-0.752h-0.647q-0.107-.215-0.215-0.429h-0.647a3.408,3.408,0,0,0-.215-0.43h-0.539l-0.646-.752h-0.539l-0.754-.859h-0.97c-0.247-.132-0.388-0.721-0.646-0.859-0.377-.2-0.9-0.129-1.293-0.322l-0.323-.429h-0.539a5.93,5.93,0,0,1-.539-0.752,5.118,5.118,0,0,0-.754-0.107l-0.108-.322h-0.538a3.873,3.873,0,0,1-.324-0.43h-0.538l-0.755-.859h-0.538a7.688,7.688,0,0,1-.539-0.752h-0.646a3.246,3.246,0,0,1-.216-0.43h-0.646l-0.216-.43h-0.646a6.037,6.037,0,0,0-.539-0.752h-0.97a9.5,9.5,0,0,1-.646-0.859h-0.647c-0.2-.111-0.347-0.626-0.538-0.752H235.18a3.915,3.915,0,0,1-.323-0.429h-0.539L234,18.462h-0.539L232.7,17.6h-0.97c-0.185-.117-0.332-0.646-0.539-0.752h-0.969l-0.323-.429h-0.539l-0.216-.43h-1.077l-0.108-.322h-0.969a2.883,2.883,0,0,1-.216-0.429h-2.263a3.052,3.052,0,0,1-.215-0.43h-1.4l-0.323-.429h-5.818ZM173.12,82.565a1.914,1.914,0,0,1,1.293.322h1.293a3.25,3.25,0,0,1,.323.43h9.158l0.324-.43c0.39-.192.92-0.121,1.293-0.322q0.107-.215.215-0.429h0.647c0.035-.107.071-0.215,0.107-0.322,0.589-.548,1.125-1.194,1.724-1.718a4.968,4.968,0,0,0,.647-0.429V79.021l0.431-.215V77.84l0.431-.322v-1.4l0.431-.215a9.83,9.83,0,0,0-.108-2.792c0.091-.215.474-0.33,0.538-0.537,0.084-.27-0.107-1.922-0.107-2.47V57.546a2.852,2.852,0,0,1,.431-0.215v-1.4a2.872,2.872,0,0,1,.431-0.215v-1.5L193.053,54v-1.4l0.323-.107c0.234-.318-0.1-0.46.108-0.752l0.323-.107V50.674l0.431-.322V49.815l0.431-.215V48.956l0.431-.215V48.1c0.127-.19.636-0.327,0.754-0.537V47.024l0.431-.322V46.165a13.136,13.136,0,0,1,1.185-.966V44.554a4.682,4.682,0,0,1,1.293-1.074V42.836a0.907,0.907,0,0,0,.539-0.107,4.152,4.152,0,0,0,1.939-2.362c0.993-.03.73-0.555,1.293-0.859h0.539l0.646-.752h0.539l0.754-.859h0.539a3.749,3.749,0,0,1,.323-0.43,9.4,9.4,0,0,0,1.4-.429,5.076,5.076,0,0,1,.538-0.752h0.97l0.323-.43h0.539l0.108-.322h0.969l0.324-.429h1.4l0.216-.429h2.262l0.216-.43h2.586l0.323-.429h3.232a3.306,3.306,0,0,1,.323.429h1.832a1.535,1.535,0,0,1,1.077.43h1.724l0.324,0.429h0.969l0.108,0.322,1.077,0.107,0.216,0.322h0.97a3,3,0,0,1,.215.43h0.646l0.216,0.429h0.646a2.864,2.864,0,0,0,.216.43h0.97l0.646,0.752H234c0.262,0.141.4,0.717,0.646,0.859h0.647a3.08,3.08,0,0,0,.215.429h0.647c0.254,0.173.67,1.02,0.969,1.181h0.539l2.478,2.577,0.97,0.859L241,44.232c0.14,0.309,1.144.814,1.293,1.074V45.95c0.209,0.383.977,0.6,1.185,0.966V47.56l0.431,0.215v0.644a3.456,3.456,0,0,1,.431.215v0.537a2.746,2.746,0,0,1,.431.322l-0.108.43a2.5,2.5,0,0,0,.431.215v0.644L245.523,51v0.966l0.431,0.322v0.966l0.431,0.215-0.108,1.288a2.279,2.279,0,0,0,.431.215c0.251,0.378-.221.828,0,1.4a3.337,3.337,0,0,0,.431.322v2.577a3.042,3.042,0,0,0,.431.215V74.726L248,74.941v1.825c0.053,0.107.357,0.19,0.431,0.322a0.5,0.5,0,0,0-.107.43l0.43,0.215V78.7l0.431,0.322v0.537c0.256,0.492,1.332.97,1.617,1.4a3.818,3.818,0,0,1,.107.752,4.321,4.321,0,0,1,1.724.859h0.97l0.108,0.322a6.47,6.47,0,0,1,.754.107l0.108,0.322h7.973a3.171,3.171,0,0,1,.323-0.43h1.724c0.035-.107.071-0.215,0.107-0.322h1.078a13.869,13.869,0,0,1,.107,3.543v7.3h-0.215c-0.2.125-.721-0.044-0.97,0.107a2.943,2.943,0,0,1-.215.43h-0.97c-1.98.824-3.927,0.751-6.788,0.752h-3.34l-0.323-.43h-1.4l-0.108-.322h-0.97a2.787,2.787,0,0,1-.215-0.43h-0.647q-0.108-.215-0.215-0.43h-0.97l-0.323-.429h-0.539l-0.323-.43h-0.539l-0.108-.322h-0.646c-0.24-.135-0.407-0.723-0.647-0.859h-0.646c-0.445-.3-0.9-1.352-1.4-1.611H242.83a25.841,25.841,0,0,1-2.155-2.147V86.752a7.574,7.574,0,0,0-1.185-.966,15.059,15.059,0,0,1-.539-1.611,8.59,8.59,0,0,1-.754-0.537V82.994a3.311,3.311,0,0,1-.431-0.215V82.242l-0.431-.322,0.108-.752a2.534,2.534,0,0,0-.431-0.322V79.88l-0.431-.322V78.592l-0.431-.215V76.122l-0.431-.215V64.2a16.325,16.325,0,0,0,0-3.329,2.124,2.124,0,0,1-.431-0.752,4.587,4.587,0,0,0,.107-2.147,2.95,2.95,0,0,0-.431-0.215V56.687l-0.431-.215V55.506l-0.43-.322V54.218a3.188,3.188,0,0,1-.431-0.322,0.735,0.735,0,0,0,0-.537,6.23,6.23,0,0,1-.755-0.537V52.178c-0.272-.4-1.071-0.618-1.293-1.074a0.739,0.739,0,0,0,.108-0.43c-0.015-.031-1.361-1.376-1.4-1.4h-0.539L228.715,48.1h-0.538a3.3,3.3,0,0,1-.216-0.429h-0.646l-0.216-.43h-0.646a2.712,2.712,0,0,0-.216-0.429h-0.969l-0.108-.322h-0.647a3.235,3.235,0,0,1-.215-0.43h-8.835a2.978,2.978,0,0,1-.215.43h-0.97l-0.216.322H212.77l-0.324.429h-0.538l-0.324.43h-0.538c-0.21.116-.349,0.626-0.539,0.752H209.86a15.061,15.061,0,0,0-1.831,2.04,12.987,12.987,0,0,0-1.616,1.4c-0.169.32,0.215,0.339,0,.644l-0.324.107v0.537l-0.861.752v0.537a2.84,2.84,0,0,0-.431.322v0.966a2.321,2.321,0,0,0-.431.215q0.054,0.644.107,1.288a2.753,2.753,0,0,1-.431.215v1.4l-0.431.322v4.617c-0.721.409-.431,2.249-0.431,3.329v9.664c-0.946.6-.043,1.212-0.323,1.933-0.061.159-.449,0.252-0.538,0.43a2.348,2.348,0,0,1,0,1.4L202,80.632V81.6l-0.431.215v0.644l-0.431.215v0.644a2.863,2.863,0,0,0-.431.215l0.108,0.429-0.431.322v0.537a3.361,3.361,0,0,1-.431.215v0.644l-0.323.107-0.108.322a10.152,10.152,0,0,0-1.185.966c-0.222.394,0.025,0.7-.431,1.074a2.088,2.088,0,0,0-.754.322,3.406,3.406,0,0,0-.108.537c-1.272.054-1.246,1.163-2.047,1.611h-0.539c-0.29.149-.478,0.712-0.754,0.859H193.16l-0.646.752h-0.97a2.88,2.88,0,0,0-.215.43h-0.647q-0.107.215-.215,0.429h-0.539l-0.323.43h-0.97a3.186,3.186,0,0,1-.323.43h-1.724l-0.108.322h-2.262a2.878,2.878,0,0,0-.216.43h-5.926c-0.4-.727-2.565-0.461-3.663-0.43a1.945,1.945,0,0,0-1.293-.429V82.565Zm41.158-6.12h10.343c0.563,0.831.563,1.217,0.539,2.684,0.927,0.669-.048,1.345.431,2.147a2.939,2.939,0,0,1,.431.215v0.966a2.835,2.835,0,0,1,.431.322c0.149,0.424-.262.595,0,0.966l0.323,0.107v0.966a2.949,2.949,0,0,0,.431.215v1.074l0.431,0.215v0.966a4.327,4.327,0,0,1,.431.322v0.537l0.323,0.107V88.9l0.431,0.215v0.644a3.273,3.273,0,0,1,.431.215V90.51l0.431,0.322v0.537c0.166,0.3,1.008.7,1.185,0.966V92.98l0.431,0.215v0.644c0.178,0.266,1.019.669,1.185,0.966v0.537l2.586,2.47,0.862,0.966h0.539c0.3,0.166.7,1,.97,1.181h0.646c0.239,0.134.407,0.727,0.646,0.859,0.357,0.2.918,0.13,1.293,0.322L240.783,102h0.538l0.323,0.43h0.97a3.381,3.381,0,0,0,.216.429c0.4,0.2.889,0.126,1.293,0.322q0.161,0.216.323,0.43h1.4a2.874,2.874,0,0,0,.216.429h0.97q0.16,0.216.323,0.43h1.293l0.215,0.322h1.4q0.108,0.215.215,0.43H253.5l0.323,0.429h11.96c0.439,1.316.115,5.078,0.107,6.765-0.625.33-.467,1.528-0.43,2.469a0.463,0.463,0,0,1,.43.43,0.578,0.578,0,0,0-.43.429c0.365,0.1.335,0.042,0.43,0.43a3.156,3.156,0,0,0-.538.429h-1.4c-0.072.143-.144,0.287-0.215,0.43h-4.849a1.4,1.4,0,0,0-.538.429h-1.617l-0.323-.429h-5.064c-0.374-.692-2.188-0.463-3.232-0.43-0.618-.847-1,0-1.724-0.429a2.874,2.874,0,0,0-.215-0.43h-1.4l-0.108-.322h-0.969l-0.324-.429h-1.4l-0.216-.43h-0.646a2.7,2.7,0,0,0-.216-0.429c-0.406-.187-1.274-0.094-1.724-0.323a3.243,3.243,0,0,1-.215-0.429H238.3q-0.107-.215-0.215-0.43H237.55l-0.323-.429h-0.539l-0.323-.43c-0.39-.192-0.921-0.121-1.293-0.322l-0.215-.429H234.21c-0.236-.158-0.384-0.72-0.646-0.859h-0.539l-0.646-.752H231.84l-0.323-.429a4.549,4.549,0,0,0-.647-0.108c0-.419.054-0.483-0.215-0.644-0.125-.088-0.359-0.007-0.539-0.107-0.21-.117-0.336-0.64-0.539-0.752h-0.646l-0.216-.429a20.567,20.567,0,0,1-1.939-1.933c-0.194-.229-0.537-0.327-0.754-0.537-0.907-.878-1.662-1.931-2.586-2.792a19.736,19.736,0,0,1-1.508-1.288l-0.108-.322-0.323-.108V99.637c-0.206-.368-0.978-0.585-1.186-0.966V98.026a1.478,1.478,0,0,0-1.185-.429,1.691,1.691,0,0,1-.107.752,8.367,8.367,0,0,0-1.186.966v0.537l-1.616,1.5a4.174,4.174,0,0,0-.107.644,1.836,1.836,0,0,0-.647.108c-0.073.228,0.08,0.322,0,.537a3.674,3.674,0,0,1-.862.644,16.853,16.853,0,0,1-2.155,2.362h-0.538c-0.19.113-.184,0.922-0.647,1.181h-0.539l-1.508,1.611h-0.539a4.719,4.719,0,0,0-.646.859,3.769,3.769,0,0,1-1.078.429c-0.21.116-.348,0.626-0.538,0.752h-0.647c-0.239.133-.407,0.726-0.646,0.859h-0.647a3.243,3.243,0,0,1-.215.429c-0.39.2-.9,0.124-1.293,0.322a3.326,3.326,0,0,0-.216.43H202.1q-0.108.215-.215,0.429h-0.647a2.782,2.782,0,0,1-.215.43h-0.97l-0.323.429h-0.539l-0.108.323H198.44l-0.216.429h-0.969l-0.324.43h-0.969l-0.216.429h-1.4l-0.216.322h-1.293l-0.323.43h-1.4q-0.106.215-.215,0.429h-3.017l-0.323.43h-3.017a2.914,2.914,0,0,1-.215.429h-6.142l-0.323-.429H174.09a4.529,4.529,0,0,1-.539-0.645c-0.331-.524-0.107-2.04-0.107-2.791,0-2.527-.352-5.626.107-7.946h11.636c0.375-.691,2.189-0.463,3.233-0.429,0.611-.851.963-0.009,1.724-0.43,0.036-.107.071-0.215,0.107-0.322h1.4a2.739,2.739,0,0,0,.215-0.43h1.078a3.125,3.125,0,0,1,.215-0.429h0.97q0.162-.215.323-0.43h0.97l0.108-.322H196.5l0.755-.859h0.969a7.076,7.076,0,0,0,.539-0.751,10.753,10.753,0,0,1,1.4-.43q0.377-.429.754-0.859h0.539l1.077-1.181h0.539a21.787,21.787,0,0,0,2.586-2.792,8.641,8.641,0,0,0,1.185-.966V94.376c0.266-.4,1.081-0.618,1.293-1.074l-0.108-.43a5.589,5.589,0,0,1,.862-0.644V91.584l0.431-.215V90.725l0.431-.215V89.866c0.126-.19.635-0.328,0.754-0.537V88.792l0.431-.322V87.5l0.431-.215V86.215A2.99,2.99,0,0,0,211.8,86l-0.108-.43a2.494,2.494,0,0,1,.431-0.215V84.283l0.431-.215V83.1l0.431-.322V81.813l0.431-.215a3.309,3.309,0,0,0-.108-1.611c0.095-.211.476-0.332,0.539-0.537,0.094-.308-0.325-1.14-0.108-1.611a2.78,2.78,0,0,1,.431-0.215A6.29,6.29,0,0,0,214.278,76.444Z" transform="translate(-145 -3)"/>
</svg>
